<svg width="27" height="28" viewBox="0 0 27 28" fill="none" xmlns="http://www.w3.org/2000/svg">
<path fill-rule="evenodd" clip-rule="evenodd" d="M0.583984 11C0.583984 10.2636 1.16228 9.66669 1.87565 9.66669H25.1257C25.839 9.66669 26.4173 10.2636 26.4173 11V26C26.4173 26.7364 25.839 27.3334 25.1257 27.3334H1.87565C1.16228 27.3334 0.583984 26.7364 0.583984 26V11ZM3.16732 12.3334V24.6667H23.834V12.3334H3.16732Z" fill="#004267"/>
<path fill-rule="evenodd" clip-rule="evenodd" d="M13.5007 3.33335C10.2474 3.33335 7.52669 6.1761 7.52669 9.78802C7.52669 10.5244 6.94839 11.1214 6.23503 11.1214C5.52166 11.1214 4.94336 10.5244 4.94336 9.78802C4.94336 4.79894 8.72976 0.666687 13.5007 0.666687C18.2715 0.666687 22.0579 4.79894 22.0579 9.78802C22.0579 10.5244 21.4796 11.1214 20.7663 11.1214C20.0529 11.1214 19.4746 10.5244 19.4746 9.78802C19.4746 6.1761 16.7539 3.33335 13.5007 3.33335Z" fill="#004267"/>
<path fill-rule="evenodd" clip-rule="evenodd" d="M13.5007 16.301C14.214 16.301 14.7923 16.8979 14.7923 17.6343V19.1343C14.7923 19.8707 14.214 20.4676 13.5007 20.4676C12.7873 20.4676 12.209 19.8707 12.209 19.1343V17.6343C12.209 16.8979 12.7873 16.301 13.5007 16.301Z" fill="#004267"/>
</svg>
