<svg width="29" height="20" viewBox="0 0 29 20" fill="none" xmlns="http://www.w3.org/2000/svg">
<path fill-rule="evenodd" clip-rule="evenodd" d="M0.75 1.5625C0.75 0.872144 1.36561 0.3125 2.125 0.3125H26.875C27.6344 0.3125 28.25 0.872144 28.25 1.5625V18.4375C28.25 19.1279 27.6344 19.6875 26.875 19.6875H2.125C1.36561 19.6875 0.75 19.1279 0.75 18.4375V1.5625ZM3.5 2.8125V17.1875H25.5V2.8125H3.5Z" fill="#004267"/>
<path fill-rule="evenodd" clip-rule="evenodd" d="M1.08104 0.749013C1.57524 0.224851 2.44327 0.164141 3.01985 0.613413L14.5 9.55882L25.9802 0.613413C26.5568 0.164141 27.4248 0.224851 27.919 0.749013C28.4132 1.27317 28.3464 2.0623 27.7699 2.51157L15.3949 12.1542C14.8799 12.5555 14.1201 12.5555 13.6052 12.1542L1.2302 2.51157C0.653619 2.0623 0.586838 1.27317 1.08104 0.749013Z" fill="#004267"/>
</svg>
