<svg width="32" height="32" viewBox="0 0 32 32" fill="none" xmlns="http://www.w3.org/2000/svg">
<g clip-path="url(#clip0_49_12)">
<path d="M31.344 0.00401357C25.0974 -0.107986 17.9733 3.15735 13.464 8.22268C9.15468 8.30402 4.95868 10.0707 1.86935 13.16C1.68935 13.3373 1.62535 13.6027 1.70401 13.8427C1.78401 14.084 1.99201 14.2587 2.24268 14.2947L7.38135 15.0307L6.74668 15.7414C6.51068 16.0054 6.52268 16.4067 6.77335 16.6574L15.3427 25.2267C15.472 25.356 15.6427 25.4214 15.8147 25.4214C15.9733 25.4214 16.132 25.3654 16.2587 25.252L16.9693 24.6173L17.7053 29.756C17.7414 30.0067 17.9387 30.1907 18.1773 30.2707C18.2387 30.2907 18.3027 30.3 18.368 30.3C18.5574 30.3 18.7507 30.2174 18.884 30.0854C21.9307 27.0387 23.6973 22.8427 23.7787 18.5333C28.8494 14.0147 32.1414 6.89335 31.996 0.65468C31.9867 0.300014 31.7 0.0133469 31.344 0.00401357ZM25.2 11.5134C24.5507 12.1627 23.6974 12.488 22.8427 12.488C21.988 12.488 21.1347 12.1627 20.4853 11.5134C19.1867 10.2133 19.1867 8.09868 20.4853 6.79868C21.7854 5.49868 23.9 5.49868 25.2 6.79868C26.5 8.09868 26.5 10.2147 25.2 11.5134Z" fill="#004267"/>
<path d="M3.63183 22.5401C2.20517 23.9667 0.246499 30.4121 0.0278324 31.1414C-0.0428343 31.3761 0.0224991 31.6308 0.194499 31.8041C0.322499 31.9321 0.491832 32.0001 0.666499 32.0001C0.730499 32.0001 0.794499 31.9908 0.858499 31.9721C1.58783 31.7534 8.03316 29.7947 9.45983 28.3681C11.0665 26.7614 11.0665 24.1467 9.45983 22.5401C7.85183 20.9334 5.2385 20.9347 3.63183 22.5401Z" fill="#004267"/>
</g>
<defs>
<clipPath id="clip0_49_12">
<rect width="32" height="32" fill="white"/>
</clipPath>
</defs>
</svg>
