<svg width="31" height="32" viewBox="0 0 31 32" fill="none" xmlns="http://www.w3.org/2000/svg">
<path d="M27.7758 26.3886L26.3914 8.38138C26.3052 7.22125 25.3547 6.31244 24.2275 6.31244H21.4931V6.18556C21.4931 2.77481 18.805 0 15.5008 0C12.1966 0 9.50854 2.77481 9.50854 6.18556V6.31244H6.77412C5.64692 6.31244 4.69639 7.22119 4.61041 8.37894L3.22559 26.3911C3.11842 27.8333 3.60309 29.2691 4.55526 30.3302C5.50742 31.3913 6.85719 32 8.25842 32H22.7431C24.1443 32 25.4941 31.3914 26.4463 30.3302C27.3985 29.269 27.8831 27.8333 27.7758 26.3886ZM11.3243 6.18556C11.3243 3.80838 13.198 1.87437 15.5008 1.87437C17.8036 1.87437 19.6773 3.80844 19.6773 6.18556V6.31244H11.3243V6.18556ZM25.1141 29.0566C24.4955 29.7459 23.6535 30.1256 22.7431 30.1256H8.25848C7.3481 30.1256 6.50614 29.7459 5.88747 29.0566C5.26886 28.3671 4.96649 27.4714 5.036 26.5369L6.4207 8.52469C6.43475 8.33519 6.58999 8.18681 6.77412 8.18681H9.50854V10.4952C9.50854 11.0128 9.91505 11.4324 10.4164 11.4324C10.9178 11.4324 11.3243 11.0128 11.3243 10.4952V8.18681H19.6773V10.4952C19.6773 11.0128 20.0838 11.4324 20.5852 11.4324C21.0866 11.4324 21.4931 11.0128 21.4931 10.4952V8.18681H24.2275C24.4116 8.18681 24.5668 8.33525 24.5811 8.52719L25.9655 26.5344C26.0352 27.4714 25.7327 28.3671 25.1141 29.0566Z" fill="#004267"/>
<path d="M19.5891 15.8928C19.2347 15.5268 18.6598 15.5268 18.3053 15.8928L14.2513 20.0776L12.6925 18.4685C12.338 18.1025 11.7631 18.1025 11.4085 18.4685C11.0539 18.8345 11.0539 19.4278 11.4085 19.7938L13.6093 22.0657C13.7866 22.2487 14.019 22.3402 14.2512 22.3402C14.4835 22.3402 14.7159 22.2487 14.8932 22.0657L19.5891 17.2183C19.9437 16.8522 19.9437 16.2588 19.5891 15.8928Z" fill="#004267"/>
</svg>
