<svg width="30" height="30" viewBox="0 0 30 30" fill="none" xmlns="http://www.w3.org/2000/svg">
<path fill-rule="evenodd" clip-rule="evenodd" d="M15.0001 3C12.5956 3 10.6465 4.94916 10.6465 7.35357C10.6465 9.75798 12.5956 11.7071 15.0001 11.7071C17.4045 11.7071 19.3536 9.75798 19.3536 7.35357C19.3536 4.94916 17.4045 3 15.0001 3ZM7.64648 7.35357C7.64648 3.29231 10.9388 0 15.0001 0C19.0613 0 22.3536 3.29231 22.3536 7.35357C22.3536 11.4148 19.0613 14.7071 15.0001 14.7071C10.9388 14.7071 7.64648 11.4148 7.64648 7.35357Z" fill="#004267"/>
<path fill-rule="evenodd" clip-rule="evenodd" d="M11.2768 20.0845C6.70553 20.0845 3 23.79 3 28.3612V28.4979C3 29.3263 2.32843 29.9979 1.5 29.9979C0.671573 29.9979 0 29.3263 0 28.4979V28.3612C0 22.1331 5.04867 17.0845 11.2768 17.0845H18.7232C24.9513 17.0845 30 22.1331 30 28.3612V28.4979C30 29.3263 29.3284 29.9979 28.5 29.9979C27.6716 29.9979 27 29.3263 27 28.4979V28.3612C27 23.79 23.2945 20.0845 18.7232 20.0845H11.2768Z" fill="#004267"/>
</svg>
